<svg  width="1em" height="1em" focusable="false" aria-hidden="true" fill="currentColor" viewBox="0 0 1024 1024" version="1.1" xmlns="http://www.w3.org/2000/svg"><path  d="M512 999.619048c-65.828571 0-131.657143 0-199.92381-2.438096-68.266667-2.438095-124.342857-48.761905-138.971428-114.590476-2.438095-12.190476-2.438095-24.380952-4.876191-36.571428-2.438095-24.380952-4.87619-46.32381-7.314285-70.704762-2.438095-19.504762-4.87619-39.009524-4.876191-58.514286-2.438095-19.504762-4.87619-39.009524-4.87619-60.952381-2.438095-17.066667-2.438095-34.133333-4.876191-51.2-2.438095-17.066667-2.438095-36.571429-4.87619-53.638095-2.438095-21.942857-2.438095-43.885714-4.876191-63.390476-2.438095-17.066667-2.438095-36.571429-4.87619-53.638096 0-14.628571-2.438095-29.257143-2.438095-43.885714 0-19.504762 14.628571-36.571429 31.695238-36.571428 19.504762-2.438095 36.571429 12.190476 39.009524 31.695238 0 7.314286 2.438095 12.190476 2.438095 19.504762 0 12.190476 2.438095 24.380952 2.438095 36.571428 2.438095 21.942857 2.438095 43.885714 4.87619 65.828572 2.438095 24.380952 4.87619 48.761905 7.314286 70.704761l7.314286 80.457143c2.438095 26.819048 4.87619 53.638095 7.314286 78.019048l7.314285 80.457143c2.438095 17.066667 2.438095 34.133333 4.876191 48.761905 7.314286 34.133333 34.133333 56.07619 68.266666 58.514285 36.571429 0 70.704762 2.438095 107.276191 2.438095h295.009524c31.695238-2.438095 58.514286-29.257143 60.952381-60.95238l7.314285-73.142858c2.438095-26.819048 4.87619-56.07619 7.314286-82.895238 2.438095-24.380952 4.87619-46.32381 7.314286-70.704762l7.314286-80.457142 7.314285-73.142858c2.438095-19.504762 2.438095-39.009524 4.876191-60.952381 0-9.752381 2.438095-19.504762 2.438095-29.257142 0-17.066667 7.314286-29.257143 24.380952-36.571429 24.380952-9.752381 51.2 9.752381 48.761905 36.571429-2.438095 36.571429-4.87619 70.704762-9.752381 107.27619-2.438095 31.695238-4.87619 60.952381-7.314286 92.647619-2.438095 36.571429-7.314286 70.704762-9.75238 107.276191-4.87619 46.32381-9.752381 90.209524-12.190477 136.533333-2.438095 17.066667-2.438095 34.133333-4.87619 48.761905-12.190476 58.514286-60.952381 104.838095-119.466667 112.152381-9.752381 2.438095-21.942857 2.438095-31.695238 2.438095-60.952381-4.87619-124.342857-2.438095-185.295238-2.438095zM512 268.190476H99.961905c-17.066667 0-31.695238-9.752381-36.571429-26.819047C56.07619 216.990476 73.142857 195.047619 99.961905 195.047619h156.038095c14.628571 0 26.819048-4.87619 36.571429-14.628571 7.314286-7.314286 9.752381-19.504762 12.190476-29.257143 2.438095-17.066667 7.314286-34.133333 9.752381-51.2 7.314286-36.571429 41.447619-65.828571 78.019047-73.142857 4.87619-2.438095 9.752381-2.438095 17.066667-2.438096h204.8c46.32381 0 85.333333 29.257143 97.52381 73.142858 4.87619 19.504762 7.314286 36.571429 12.190476 56.07619 2.438095 19.504762 14.628571 31.695238 34.133333 39.009524 2.438095 2.438095 7.314286 2.438095 12.190476 2.438095h153.6c17.066667 0 31.695238 12.190476 34.133334 26.819048 4.87619 17.066667-2.438095 31.695238-17.066667 41.447619-2.438095 2.438095-9.752381 4.87619-14.628572 4.87619H512z m-143.847619-73.142857h287.695238c-4.87619-19.504762-9.752381-36.571429-12.190476-56.07619-2.438095-7.314286-2.438095-14.628571-4.876191-21.942858-2.438095-12.190476-12.190476-19.504762-24.380952-19.504761h-204.8c-12.190476 0-21.942857 7.314286-24.380952 19.504761-2.438095 12.190476-4.87619 26.819048-7.314286 39.009524-4.87619 14.628571-7.314286 26.819048-9.752381 39.009524zM402.285714 582.704762v-129.219048c0-12.190476 2.438095-21.942857 9.752381-29.257143 9.752381-12.190476 24.380952-14.628571 39.009524-9.752381 14.628571 4.87619 24.380952 17.066667 24.380952 31.695239V711.92381c0 19.504762-9.752381 34.133333-29.257142 39.009523-21.942857 4.87619-43.885714-9.752381-43.885715-34.133333v-14.628571-119.466667zM621.714286 582.704762v131.657143c0 19.504762-14.628571 34.133333-34.133334 36.571428-19.504762 2.438095-39.009524-14.628571-39.009523-34.133333v-2.438095-265.752381c0-19.504762 14.628571-36.571429 34.133333-36.571429 21.942857-2.438095 39.009524 14.628571 39.009524 36.571429v134.095238z" /></svg>