<?xml version="1.0" standalone="no"?><!DOCTYPE svg PUBLIC "-//W3C//DTD SVG 1.1//EN" "http://www.w3.org/Graphics/SVG/1.1/DTD/svg11.dtd"><svg t="1652685956429" class="icon" viewBox="0 0 1024 1024" version="1.1" xmlns="http://www.w3.org/2000/svg" p-id="2603" xmlns:xlink="http://www.w3.org/1999/xlink" width="200" height="200"><defs><style type="text/css"></style></defs><path d="M512 954.88H79.36c-19.456 0-35.84-6.656-49.664-19.968-22.016-22.528-25.6-55.296-9.216-83.456 18.432-31.744 36.864-64 55.296-95.744 19.456-33.792 38.912-67.584 58.368-100.864 22.016-38.4 44.544-76.8 66.56-115.2 22.016-38.4 44.032-76.288 66.56-114.688 20.48-34.816 40.448-70.144 60.928-104.96 21.504-36.864 42.496-73.728 64-111.104 20.48-34.816 40.448-70.144 60.928-104.96 13.824-23.552 34.816-35.84 61.952-35.328 25.088 1.024 44.032 12.8 56.832 34.816 26.624 45.568 52.736 91.648 79.36 137.216 27.648 47.616 55.296 95.744 82.944 143.36 36.864 63.488 73.216 126.976 110.08 190.464 29.696 51.712 59.392 102.912 89.088 154.624 24.064 41.472 48.128 83.456 72.192 124.928 22.016 38.4 2.048 87.04-39.936 98.816-6.656 2.048-13.824 2.56-20.48 2.56-145.408-0.512-289.28-0.512-433.152-0.512z m-0.512-62.976H945.152c4.608 0 6.656-3.584 4.096-7.168-6.656-11.776-13.824-24.064-20.48-35.84-19.456-33.792-38.912-67.072-58.368-100.864-17.408-30.72-35.328-60.928-52.736-91.648-16.896-29.184-33.28-57.856-50.176-87.04-17.408-30.72-35.328-60.928-52.736-91.648-19.456-33.792-38.912-67.072-58.368-100.864-17.408-30.72-35.328-60.928-52.736-91.648-17.408-30.72-35.328-60.928-52.736-91.648-11.776-19.968-23.04-39.936-34.816-59.904-2.56-4.096-6.144-4.096-8.704 0-17.92 30.72-35.328 61.44-53.248 91.648-33.792 58.88-68.096 117.76-101.888 176.64-32.256 56.32-65.024 112.128-97.28 168.448-29.696 51.2-59.392 102.4-89.088 154.112-23.552 40.96-47.104 81.408-70.656 122.368-7.168 12.288-14.336 25.088-21.504 37.376-2.048 4.096-0.512 7.168 4.096 7.68H511.488z m302.592-86.016H225.792c98.304-169.984 196.096-339.456 293.888-509.44 98.304 170.496 196.096 339.968 294.4 509.44z m-478.72-62.976h369.152c-61.44-106.496-122.88-212.992-184.832-319.488l-184.32 319.488z" p-id="2604"></path></svg>