<?xml version="1.0" standalone="no"?><!DOCTYPE svg PUBLIC "-//W3C//DTD SVG 1.1//EN" "http://www.w3.org/Graphics/SVG/1.1/DTD/svg11.dtd"><svg t="1652685928234" class="icon" viewBox="0 0 1024 1024" version="1.1" xmlns="http://www.w3.org/2000/svg" p-id="1788" xmlns:xlink="http://www.w3.org/1999/xlink" width="200" height="200"><defs><style type="text/css"></style></defs><path d="M496.64 25.088h30.72c1.536-4.608 2.048-5.12 7.68-4.608 53.248 5.12 105.472 15.36 155.648 33.792 59.392 21.504 113.152 52.736 160.768 95.232 47.616 42.496 85.504 92.672 113.664 150.016 15.872 32.256 28.672 65.536 36.864 100.352 5.12 20.992 9.728 42.496 12.288 64 2.56 24.576 4.096 49.664 3.072 74.24-1.024 35.328-5.12 70.144-13.312 104.448-18.432 78.336-51.712 150.016-103.424 211.968-31.744 37.888-69.12 69.632-110.08 96.768-9.728 6.144-19.456 12.8-29.184 18.432-16.896 10.24-35.328 16.384-54.272 20.48-18.944 4.096-37.888 7.168-56.832 8.192-13.824 1.024-28.16 1.536-41.984 1.536H405.504c-33.28 0-65.536-5.632-97.792-14.336-49.152-12.8-90.624-38.4-129.024-70.656-51.712-44.032-91.136-97.792-121.856-158.208-23.04-45.056-38.4-92.672-45.568-142.848-5.632-37.376-7.168-74.752-4.608-112.128C10.24 447.488 20.48 392.704 38.912 340.48c9.216-25.6 22.016-49.152 36.352-72.192 40.96-66.048 92.672-121.856 157.184-164.864C286.72 67.072 345.088 43.52 408.576 30.72c27.136-5.632 54.784-8.704 82.432-10.24 3.584-0.512 4.608 0.512 5.632 4.608zM222.208 612.864h2.048c23.04-1.536 46.592-3.072 69.632-4.096 31.232-2.048 62.976-3.584 94.208-5.632 4.608-0.512 8.192 1.024 11.776 4.096 14.848 14.336 29.696 28.672 44.544 43.52 2.56 2.56 4.096 6.144 4.608 9.728 0.512 15.36 1.024 30.72 1.536 45.568 1.024 27.648 1.536 55.808 2.56 83.456 0.512 10.24 0.512 20.48 0 30.72 0 5.632-2.048 11.264-7.168 15.36-0.512 0.512-1.024 1.536-1.024 2.56-1.024 4.608-1.536 9.728-2.56 14.336-1.024 5.12-1.024 10.752-3.072 15.872-2.56 5.632-6.144 11.264-10.752 15.872-11.264 12.288-26.112 16.384-41.984 16.896-11.264 0.512-22.528-1.536-33.792-4.608-41.472-11.264-77.824-32.768-110.592-60.416-28.16-24.064-52.224-51.712-72.192-82.944-11.264-17.408-22.016-34.816-29.696-53.76-3.072-7.68-5.632-15.36-5.12-23.552 1.024-14.336 6.656-26.624 17.92-35.84 11.264-9.216 25.088-13.312 39.424-14.848 1.024 0 2.56 0 3.072-1.024 4.096-6.144 9.728-8.704 16.384-10.24 0.512 0 1.536-1.024 1.536-2.048 3.072-18.432 6.144-36.352 8.704-54.784 3.584-21.504 7.168-43.008 10.24-64.512 1.024-5.12 1.536-9.728 2.56-15.36-9.728 1.024-18.944 2.56-28.16 3.584-11.264 1.536-22.016 3.584-33.792 2.56-12.288-1.024-23.04-5.12-32.256-13.312-5.632-5.12-10.24-11.264-11.264-18.944-2.048-14.336-3.072-29.184-2.048-43.52 1.536-25.6 9.216-49.152 24.064-70.144 10.24-14.848 23.04-26.624 36.864-37.888 16.896-13.824 34.816-27.136 55.808-34.304 4.096-1.536 8.192-4.608 11.264-7.68 6.656-6.656 10.24-15.36 12.8-24.064 4.096-14.336 7.68-28.672 11.776-42.496 0.512-2.56 2.048-3.584 4.608-3.584h4.096c3.072-37.376 6.144-74.24 9.216-111.104h-0.512c-0.512 0.512-1.536 0.512-2.048 1.024C242.688 102.4 195.584 136.704 154.624 179.2c-31.232 32.256-58.368 68.608-80.896 107.52-9.728 16.896-18.432 33.792-25.6 52.224-4.096 10.752-7.168 21.504-10.752 32.256C25.6 411.136 18.432 452.608 15.36 494.08c-2.048 26.624-2.048 53.248 0 79.872 2.048 26.112 5.632 51.712 11.264 77.312 10.752 46.592 29.184 89.6 52.736 130.56 32.768 56.32 73.216 105.472 125.952 144.384 33.792 25.088 70.656 45.056 112.64 54.784 28.16 6.656 56.832 11.776 86.016 11.776h204.8c12.288 0 24.576-0.512 36.352-1.024 22.528-1.536 44.544-4.608 66.048-10.24 15.872-4.096 31.744-9.216 45.568-17.92 10.24-6.656 20.48-12.8 30.72-19.968 52.736-34.816 98.816-77.824 134.144-130.56 38.912-57.856 64.512-121.344 77.824-189.952 5.632-28.16 8.192-56.32 9.216-84.48 1.024-28.16-0.512-56.32-4.608-84.48-2.56-19.968-7.168-38.912-12.288-58.368-8.704-33.792-21.504-66.56-37.376-97.792-27.648-54.272-64-102.4-110.08-142.848-35.84-31.744-75.776-57.344-119.296-77.312-0.512-0.512-1.536-0.512-2.56-1.024 3.072 36.864 6.144 73.216 9.216 109.568 5.12-1.024 6.656 1.536 7.68 5.632l16.896 56.832c0.512 1.024 0.512 2.048 1.536 3.072 8.192 7.68 17.408 14.848 28.16 18.944 3.072 1.024 6.656 2.048 9.728 3.584 18.944 8.704 34.816 20.992 49.152 35.328 15.36 14.848 27.648 31.744 35.328 51.712 5.12 12.8 7.68 26.112 10.24 39.424 3.072 14.848 4.608 30.208 2.56 45.056-3.072 18.944-13.312 32.256-31.744 37.888-18.432 5.632-36.352 3.584-53.248-3.072-6.656-2.56-12.8-1.536-19.456-2.048 2.048 14.336 4.096 28.672 6.144 42.496 2.56 15.872 4.608 31.744 7.168 47.616 2.048 14.336 4.096 29.184 6.144 43.52 0 1.536 1.024 2.56 2.56 3.072 4.096 1.024 8.192 3.584 10.24 7.168 1.536 2.56 3.584 3.072 6.144 3.072 8.704 0.512 17.408 2.56 26.112 5.632 25.088 8.192 31.744 31.744 30.72 48.64-1.024 12.288-5.12 23.04-10.752 33.792-22.528 43.008-51.2 81.92-87.04 114.688-28.672 26.624-60.928 47.616-97.792 60.928-16.896 6.144-34.304 11.264-53.248 10.24-21.504-1.024-38.4-10.752-48.64-30.208-5.12-10.24-7.68-20.992-8.192-31.744 0-2.048-1.024-3.584-3.072-3.584-5.12-0.512-7.168-3.584-8.192-7.68-0.512-3.072-1.024-6.144-1.024-9.216 0-6.144 0.512-11.776 1.024-17.92l3.072-75.264c0.512-17.408 1.536-34.304 2.048-51.712 0-11.776 3.072-22.016 8.704-31.744 0.512-0.512 0.512-1.536 1.024-2.048h-0.512c-0.512 0.512-1.536 0.512-2.048 1.024-33.792 19.968-70.144 24.576-107.52 13.312-69.632-20.48-108.544-94.72-86.528-162.816 22.016-67.584 95.232-104.96 164.352-83.968 70.144 21.504 109.056 94.72 86.016 164.352-4.096 11.776-9.728 22.528-16.896 32.768-1.024 1.536-2.56 3.584-4.096 5.632 1.024-0.512 1.536-0.512 2.048-0.512 13.824-5.632 28.672-7.168 43.52-5.12 11.264 1.024 22.016 2.56 33.28 3.584 17.408 1.536 34.304 2.56 51.712 4.096 14.848 1.024 29.696 2.048 45.056 3.072 3.584 0 7.168 0.512 10.752 0.512v-1.536c-2.048-15.872-4.608-31.744-6.656-47.616-4.096-27.648-8.192-55.808-12.288-83.456-0.512-2.048-1.024-2.56-3.072-3.072-7.68-1.024-15.872-2.048-23.552-3.584-4.608-0.512-8.704 0-12.288 2.048-8.192 5.12-16.896 10.24-25.6 15.872-7.68 5.12-15.36 5.12-23.552 0.512-21.504-12.8-43.52-25.088-65.024-37.376-4.608-2.56-8.704-5.12-12.288-9.216-20.48-25.6-47.104-41.472-79.36-47.616-19.456-3.584-38.912-3.072-58.368 1.024-32.256 7.168-58.368 23.04-77.824 50.176-2.048 2.56-4.608 5.12-7.68 6.656-23.04 12.8-46.592 25.6-70.144 38.4-6.144 3.072-11.776 3.072-17.408-0.512-9.728-6.144-19.968-12.288-29.696-18.432-2.048-1.536-4.608-2.048-7.168-1.536-7.68 1.536-15.872 3.072-23.552 4.096-2.048 0.512-2.56 1.024-2.56 2.56-2.56 17.408-5.632 34.816-8.192 52.224-3.072 19.968-6.656 40.448-9.728 60.416-0.512 5.632-1.536 11.776-2.56 18.432z m305.152-486.4h-29.184c-0.512 0-1.536 0.512-1.536 1.024-0.512 3.072-2.56 3.584-5.632 3.584-7.168 0.512-14.336 0.512-20.992 1.536-16.384 2.048-32.768 4.096-48.64 7.68-45.056 9.728-87.552 26.112-124.928 54.272-1.024 0.512-2.048 1.024-3.584 1.536-1.536 0-3.584-0.512-4.608 0-1.024 1.024-1.024 3.072-1.536 4.608 0 0.512-0.512 1.024-0.512 2.048-3.584 15.872-7.68 31.744-14.848 46.592-5.632 12.288-14.336 21.504-27.648 26.112-11.264 4.096-22.016 9.216-31.744 16.896-11.776 9.728-23.552 18.944-34.816 29.184-20.48 18.944-33.792 41.984-38.912 69.632-3.072 16.896-3.584 33.28-1.536 50.176 0.512 4.096 0.512 8.704 2.048 12.288 6.144 12.8 16.896 18.944 30.208 21.504 11.264 2.048 22.016 0 33.28-1.536 9.728-1.536 19.968-2.56 29.696-3.584 3.584-0.512 7.168 0.512 10.752 0.512 6.656-1.024 13.312-2.048 19.968-3.584 7.168-1.536 13.312-1.536 19.456 2.56 9.216 6.144 18.432 11.776 27.648 17.408 3.584 2.048 6.656 2.56 10.752 0.512 23.04-12.8 45.568-25.088 68.608-37.376 2.048-1.024 3.584-2.56 5.12-4.096 14.848-20.992 34.304-36.352 57.856-46.08 29.184-11.776 59.392-14.336 90.624-7.68 32.768 7.168 59.392 23.552 80.896 49.664 1.536 1.536 3.072 3.072 4.608 4.096 23.04 13.312 46.592 26.624 69.632 40.448 5.12 3.072 9.728 3.072 14.848 0 8.704-5.632 17.408-10.752 26.624-16.384 5.12-3.072 10.24-4.096 16.384-3.072 15.872 2.56 31.744 5.632 48.128 4.608 1.536 0 3.072 0.512 4.096 1.024 16.384 6.656 32.768 9.728 50.176 5.12 14.336-4.096 24.064-12.8 27.136-27.648 1.024-5.12 1.536-10.24 1.536-15.36 0-15.872-3.072-30.72-6.144-46.08-3.072-13.312-7.168-26.624-13.824-38.4-12.288-20.48-28.16-37.376-47.616-51.712-9.216-6.656-18.432-13.312-29.184-16.896-14.848-4.608-27.136-13.312-37.888-24.064-1.024-1.024-1.536-2.048-2.048-3.584-4.096-13.312-7.68-26.624-11.776-39.936-2.048-6.144-3.584-12.8-5.632-18.944H727.04c-1.536-0.512-3.584-0.512-5.12-1.536-20.992-15.36-44.032-28.16-68.608-37.376-38.4-14.848-78.336-23.04-119.296-23.552-4.608-0.512-5.632-1.024-6.656-6.144zM443.392 738.816c0-3.584 0-6.656-0.512-10.24-0.512-22.528-1.536-44.544-2.048-67.072 0-2.048-1.024-4.608-2.56-5.632-14.336-14.336-29.184-28.672-44.032-42.496-1.024-1.024-3.072-2.048-5.12-2.048-4.608 0-8.704 0.512-13.312 0.512-13.824 1.024-27.136 1.536-40.96 2.56-18.432 1.024-36.352 2.048-54.784 3.072-13.824 1.024-27.648 1.536-41.472 2.56-7.68 0.512-15.872 1.024-23.552 1.536-5.632 0.512-10.752 2.56-13.312 8.192-0.512 1.024-2.56 2.048-3.584 2.048-8.704 1.024-16.896 2.048-25.088 5.12-21.504 7.68-36.352 30.208-25.6 56.32 5.632 13.824 12.288 27.136 20.48 39.936 23.552 38.912 52.224 74.24 88.576 102.912 27.136 21.504 56.832 38.912 90.112 49.152 15.36 4.608 30.208 8.704 46.592 6.656 13.312-1.536 25.088-6.656 33.28-17.92 3.072-4.096 5.632-8.192 6.144-13.312l4.608-27.648c0.512-1.536 1.536-3.072 2.56-3.584 2.56-1.024 3.584-2.56 4.096-4.608 0.512-4.608 1.536-9.728 1.536-14.336-0.512-24.064-1.536-47.616-2.048-71.68z m135.68 2.048v3.072c-1.024 19.968-2.048 39.936-2.56 59.904 0 5.632-0.512 10.752-0.512 16.384s0.512 5.632 5.632 6.656h1.024c4.608 1.024 5.12 1.536 5.12 6.144 0.512 5.632 1.024 11.776 2.048 17.408 2.56 12.288 8.192 23.04 17.92 31.232 11.776 9.216 25.6 10.752 40.448 9.728 15.872-1.536 30.72-6.144 45.568-12.288 37.888-15.36 70.144-38.4 98.816-67.072 29.184-29.184 53.248-61.952 72.704-98.304 5.632-10.752 10.24-21.504 11.264-33.28 1.024-13.824-3.584-33.28-24.064-40.448-9.728-3.584-19.968-5.12-30.208-5.632-2.56 0-4.096-1.024-5.12-3.072-2.048-4.608-5.632-7.168-10.752-7.68-6.656-1.024-13.824-1.536-20.992-1.536-5.12-0.512-9.728-0.512-14.848-1.024-14.336-1.024-29.184-2.048-43.52-3.072l-36.864-3.072c-12.288-1.024-25.088-2.56-37.376-3.584-29.184-2.048-53.76 11.776-66.56 38.4-2.048 4.608-4.608 9.216-5.12 14.848-0.512 9.216-1.024 18.432-1.024 27.648 0 15.872-0.512 32.256-1.024 48.64z m-193.024-211.456c0 23.552 6.144 45.568 18.432 65.024 27.648 44.032 79.36 66.048 130.56 56.832 55.808-10.24 98.304-56.832 101.888-112.128 2.56-34.304-7.68-65.024-30.72-90.624-35.84-38.4-79.872-51.2-130.56-36.864-54.272 14.848-90.112 65.024-89.6 117.76zM487.936 29.184h-4.608c-26.624 1.536-53.248 5.12-79.36 10.752-34.304 7.68-67.584 18.432-99.84 32.768-1.536 0.512-2.048 1.536-2.56 3.584 0 3.072-0.512 6.144-0.512 9.216-1.024 14.336-2.56 28.16-3.584 42.496-1.024 14.336-2.56 28.672-3.584 43.008-0.512 5.12-1.024 10.24-1.536 15.872 1.024-0.512 1.024-1.024 1.536-1.024 6.144-4.096 12.288-8.704 18.944-12.8 30.208-18.432 62.976-31.232 97.28-39.424 20.992-5.12 41.984-8.704 64-10.24 4.608-0.512 9.216-0.512 13.824-1.024V29.184z m48.64-0.512v95.232h1.024c24.576 0.512 48.64 4.096 72.192 9.728 41.984 9.728 80.896 26.624 116.224 52.224 1.024 1.024 2.56 1.024 4.608 1.536v-2.048c-1.024-9.728-1.536-18.944-2.56-28.672-1.024-13.824-2.56-28.16-3.584-41.984-1.024-11.776-2.048-24.064-3.072-35.84 0-2.048-0.512-3.072-2.56-4.096-13.312-5.12-26.624-10.752-39.936-15.36-33.28-11.776-67.072-19.456-101.376-25.088-13.824-2.048-27.648-3.584-40.96-5.632zM496.64 28.16v95.232h30.72V28.16h-30.72z" fill="#AAAAAA" p-id="1789"></path><path d="M512.512 453.632c31.744 0.512 60.416 19.456 71.68 48.64 16.896 42.496-8.704 90.624-54.272 100.864-37.376 8.192-75.264-11.264-89.088-46.08-16.896-43.008 8.704-91.136 54.272-100.864 5.632-1.536 11.264-2.048 17.408-2.56z m0 148.992c6.144-1.024 12.288-1.536 18.432-3.072 37.888-9.216 61.44-47.104 53.76-84.48-8.704-41.984-52.224-67.584-94.72-54.784-35.84 11.264-56.832 45.568-50.688 81.92 6.144 34.304 37.376 59.904 73.216 60.416z" fill="#AAAAAA" p-id="1790"></path><path d="M600.064 596.48c-9.728 0-17.408-7.68-17.408-17.408s8.192-17.408 17.408-17.408c9.216 0 17.408 8.192 17.408 17.408 0 9.216-7.68 17.408-17.408 17.408z m0-3.584c7.68 0 13.824-6.144 13.824-13.824 0-7.68-6.144-13.824-13.824-13.824-7.68 0-13.824 6.144-13.824 13.824 0 7.68 6.144 13.824 13.824 13.824zM528.896 428.544c0 9.728-7.68 17.408-16.896 17.408-9.728 0-17.408-7.68-17.408-17.408s7.68-17.408 17.408-17.408c9.216 0 16.896 7.68 16.896 17.408z m-16.896 13.824c7.68 0 13.824-6.144 13.824-13.824 0-7.68-6.144-13.824-13.824-13.824-7.68 0-13.824 6.144-13.824 13.824-0.512 7.168 5.632 13.824 13.824 13.824zM598.528 495.104c-9.728 0-17.408-7.68-17.408-17.408s7.68-17.408 17.408-17.408 17.408 7.68 17.408 17.408-7.68 17.408-17.408 17.408z m0-3.584c7.68 0 13.824-6.144 13.824-13.824 0-7.68-6.144-13.824-13.824-13.824-7.68 0-13.824 6.144-13.824 13.824 0 7.68 6.144 13.824 13.824 13.824zM528.896 630.784c0 9.728-7.68 17.408-16.896 17.408-9.728 0-17.408-7.68-17.408-16.896 0-9.728 7.68-17.408 17.408-17.408 9.216-0.512 16.896 7.168 16.896 16.896z m-16.896-13.824c-7.68 0-13.824 6.144-13.824 13.824 0 7.68 6.144 13.824 13.824 13.824 7.68 0 13.824-6.144 13.824-13.824 0-7.68-6.144-13.824-13.824-13.824zM443.392 477.184c0 9.728-7.68 17.408-17.408 17.408s-17.408-7.68-17.408-17.408 7.68-17.408 17.408-17.408c9.728 0.512 17.408 8.192 17.408 17.408z m-16.896-13.312c-7.68 0-13.824 6.144-13.824 13.824 0 7.68 6.144 13.824 13.824 13.824 7.68 0 13.824-6.144 13.824-13.824 0-7.68-6.144-13.824-13.824-13.824zM405.504 578.56c0-9.728 7.68-17.408 17.408-17.408s17.408 7.68 17.408 17.408-7.68 17.408-17.408 16.896c-9.728 0.512-17.408-7.168-17.408-16.896z m3.584 0c0 7.68 6.144 13.824 13.824 13.824 7.68 0 13.824-6.144 13.824-13.824 0-7.68-6.144-13.824-13.824-13.824-7.68 0-13.824 6.144-13.824 13.824zM515.072 559.616c-4.096-1.536-8.192-2.56-11.776-4.096-1.024-0.512-1.536-2.56-1.536-4.096-0.512-6.144-0.512-11.776-0.512-17.92 0-11.776-0.512-23.04-0.512-34.816 0-3.584 0.512-4.096 4.096-3.072 6.144 2.048 12.288 4.096 17.92 6.144 10.24 3.584 15.36 17.408 9.728 27.136-2.048 3.072-5.632 5.12-9.728 4.096-2.56-0.512-3.584-2.048-3.584-4.608 0-5.632 0-10.752-0.512-16.384 0-2.048 0-5.12-2.56-5.12s-2.048 3.072-2.048 5.12c0 13.824 0.512 28.16 0.512 41.984 0.512 2.048 0.512 3.584 0.512 5.632z" fill="#AAAAAA" p-id="1791"></path><path d="M539.136 541.184c-1.536 0-3.584 0-5.12 0.512-5.632 1.536-11.264 3.072-17.408 5.12v-6.656c0-1.024 1.536-2.048 2.048-2.56 9.216-3.072 18.944-3.072 27.648 1.024 1.536 0.512 3.584 2.56 4.096 4.608 0 1.536-2.048 3.584-3.584 4.608-9.728 4.096-19.968 7.68-30.208 11.776-1.536-6.144-0.512-7.68 4.608-9.728 4.608-2.048 9.728-3.584 14.336-5.632l3.072-1.536c0.512-1.024 0.512-1.024 0.512-1.536zM498.688 531.968c0.512 2.048 0.512 3.584 1.024 5.12 0 2.048-1.024 3.072-2.56 4.096-3.072 1.024-6.144 2.56-9.728 3.584l-3.072 1.536c5.632 2.56 10.24-0.512 15.872-1.536 0 1.536 0.512 3.072 0 4.608-0.512 1.024-1.536 2.56-2.56 2.56-7.68 1.536-14.848 0-22.016-3.072-4.096-2.048-4.096-5.632 0-7.68 4.608-2.048 9.216-4.096 13.824-5.632 2.048-1.536 5.632-2.56 9.216-3.584zM591.872 579.072c0-5.12 3.584-8.704 8.704-8.704s8.704 4.096 8.704 8.704c0 4.608-4.096 8.704-8.704 8.704-5.12 0-9.216-3.584-8.704-8.704z m13.824 0c0-3.072-2.56-5.12-5.12-5.632-3.072 0-5.632 2.56-5.632 5.632 0 3.072 2.56 5.12 5.12 5.12 3.584 0 5.632-2.048 5.632-5.12zM520.704 428.544c0 5.12-4.096 8.704-8.704 8.704-5.12 0-8.704-4.096-8.704-9.216s4.096-8.704 8.704-8.704c5.12 0.512 8.704 4.608 8.704 9.216z m-13.824 0c0 3.072 2.048 5.12 5.12 5.632 3.072 0 5.632-2.048 5.632-5.12s-2.56-5.12-5.12-5.12c-3.584-0.512-5.632 1.536-5.632 4.608zM598.528 468.992c5.12 0 8.704 3.584 8.704 8.704 0 4.608-3.584 8.704-8.704 8.704s-8.704-3.584-8.704-8.704c0-4.608 4.096-8.704 8.704-8.704z m5.632 8.704c0-3.072-2.048-5.12-5.12-5.12s-5.12 2.56-5.12 5.12c0 3.072 2.56 5.632 5.632 5.12 2.56 0.512 4.608-2.048 4.608-5.12zM520.704 630.784c0 5.12-4.096 8.704-8.704 8.704-4.608 0-8.704-4.096-8.704-8.704 0-4.608 4.096-8.704 8.704-8.704 4.608 0 8.704 4.096 8.704 8.704z m-13.824 0c0 3.072 2.048 5.12 5.12 5.632 3.072 0 5.632-2.048 5.632-5.12s-2.048-5.12-5.12-5.12c-3.584-0.512-5.632 1.536-5.632 4.608zM435.2 477.696c0 5.12-3.584 8.704-8.704 8.704-4.608 0-8.704-4.096-8.704-8.704 0-4.608 4.096-8.704 8.704-8.704 4.608 0 8.704 3.584 8.704 8.704z m-3.584 0c0-3.072-2.56-5.12-5.12-5.12-3.072 0-5.12 2.048-5.632 5.12 0 3.072 2.56 5.632 5.12 5.632 3.584-0.512 5.632-2.56 5.632-5.632zM422.912 587.776c-5.12 0-8.704-4.096-8.704-8.704 0-4.608 4.096-8.704 9.216-8.704s8.704 4.096 8.704 8.704c-0.512 4.608-4.608 8.704-9.216 8.704z m0-14.336c-3.072 0-5.12 2.048-5.12 5.12s2.56 5.632 5.632 5.12c3.072 0 5.12-2.56 5.12-5.632-0.512-2.048-2.56-4.608-5.632-4.608z" fill="#AAAAAA" p-id="1792"></path><path d="M496.64 28.16h30.72v95.232h-30.72z" fill="#50C89F" p-id="1793"></path></svg>